<!-- by TradingView --><svg xmlns="http://www.w3.org/2000/svg" width="56" height="56"><path fill="#F0F3FA" d="M0 0h56v56H0z"/><path d="M25.62 12a24.9 24.9 0 01-2.32 11H12.76a16.04 16.04 0 0112.86-11zm4.7 0c.06 5.94 1.6 9.72 2.39 11h10.53a16.04 16.04 0 00-12.91-11zM44 28h-8.45c-.76 0-.77.42-.57.9l4.46 10.26A16.08 16.08 0 0044 28zm-8.57 14.17l-5.1-12.53a2.49 2.49 0 00-2.31-1.69c-1.29 0-2.06.87-2.38 1.69l-5.12 12.5a15.86 15.86 0 0014.9.03zm-18.7-2.85l4.36-10.63c.27-.6-.3-.69-.55-.69H12a16.08 16.08 0 004.72 11.32z" fill="url(#abqwjj3kv)"/><defs><linearGradient id="abqwjj3kv" x1="28" y1="12" x2="28" y2="44" gradientUnits="userSpaceOnUse"><stop stop-color="#00479D"/><stop offset="1" stop-color="#019EE8"/></linearGradient></defs></svg>