<!-- by TradingView --><svg width="56" height="56" xmlns="http://www.w3.org/2000/svg"><path fill="url(#paint0_linear)" d="M0 0h56v56H0z"/><path d="M22.102 40h-3.88c3.699-5.625 9.512-15.97 16.73-20.097 4.505-2.576 8.802-1.99 10.387-1.374-2.253-.478-5.599-.481-10.972 3.607C29.945 25.5 26.023 33.086 22.102 40z" fill="#F9BE00"/><path d="M26.774 40h-3.588c1.21-2.061 4.497-8.974 7.927-13.27 3.144-3.936 7.444-6.605 9.136-7.213 3.538-1.271 6.133-.301 7.134.558-1.71-1.074-5.298-1.46-10.346 3.049S29.36 34.804 26.774 40z" fill="#ED6D00"/><path d="M27.65 40h3.505l1.626-3.992L33 36c2.469-.108 5.354-.974 7.876-2.012 6.34-2.61 11.097-11.764 5.924-13.653A5.54 5.54 0 0045 20c-4.64-.095-9.324 5.496-11.133 7.89-.235-.126-.537-.28-.89-.46-1.31-.67-3.34-1.709-5.41-3.06-.703-.46-1.378-.913-2.034-1.352-3.173-2.126-5.89-3.946-9.105-4.79-2.003-.525-4.229.276-6.326 1.031-1.085.391-2.135.77-3.102.945.542 0 2.461.24 4.297 1.718.962.774 2.106 2.085 3.424 3.596 1.825 2.092 3.985 4.568 6.463 6.538 2.345 1.863 5.206 3.273 8.474 3.769-.65 1.282-1.234 2.524-2.007 4.175zm8.97-11.294c1.015-1.732 4.055-5.694 6.926-7 3.337-1.517 4.922-.128 4.922 1.59 0 2.404-2.837 4.423-4.422 5.024l-.014.005c-.738.28-1.92.728-4.283.768-1.227.02-2.086-.086-3.129-.387z" fill="#E70012"/><defs><linearGradient id="paint0_linear" x1="10.418" y1="9.712" x2="68.147" y2="76.017" gradientUnits="userSpaceOnUse"><stop stop-color="#1A1E21"/><stop offset="1" stop-color="#06060A"/></linearGradient></defs></svg>