<!-- by TradingView --><svg width="56" height="56" viewBox="0 0 56 56" xmlns="http://www.w3.org/2000/svg"><path fill="#F0F3FA" d="M0 0h56v56H0z"/><path d="M42.97 39.08c-.13.28-.32.53-.6.74a35.78 35.78 0 0 1-4.65 3.06 56.55 56.55 0 0 1-8.61 3.85c-.45.16-.79.25-1 .26-.34.03-.71-.01-1.11-.12a20.1 20.1 0 0 1-4.05-1.64c-3.12-1.6-6.17-3.45-9.19-5.37a1.56 1.56 0 0 1-.66-.82 3.74 3.74 0 0 1-.1-1.01V17.28c0-.44.03-.76.1-.95.15-.41.42-.71.78-.9L25.7 9.41a6.4 6.4 0 0 1 3.97-.15c.72.2 1.38.46 1.98.78a580.75 580.75 0 0 0 10.7 5.5c.26.16.65.5.65.83a314694.95 314694.95 0 0 0-.03 22.71Zm-.3-22.75c-.11-.25-.35-.46-.6-.58-4.15-2.1-7.24-3.67-10.55-5.42a10.7 10.7 0 0 0-1.27-.56 6.3 6.3 0 0 0-4.34-.11l-11.42 5.82c-.45.22-.72.39-.81.5-.24.25-.36.6-.36 1.02v3.82c.03 1.98 0 4.48 0 6.04V38.5c.01.46.2.8.56 1.04 3.04 1.98 6.2 3.85 9.45 5.51.96.5 1.87.9 2.72 1.2.43.15.82.27 1.2.35.37.08.73.1 1.07.04a55.93 55.93 0 0 0 9.32-4.09 34.3 34.3 0 0 0 4.58-3.03c.15-.12.46-.42.46-.62a12217.91 12217.91 0 0 1-.01-22.58Z" fill="#E70012"/><path d="M41.82 36.39c.14 0 .18.12.18.24v1.8c0 .19-.09.36-.28.51a33.68 33.68 0 0 1-4.29 2.86c-2.95 1.65-6 3-9.17 4.08-.28.1-.6.1-.97 0-.88-.24-1.72-.54-2.52-.92a67.55 67.55 0 0 1-4.7-2.46A130.82 130.82 0 0 1 14.3 39c-.32-.19-.29-.46-.29-.79V18.06c0-.45-.03-.85 0-1.22.02-.23.13-.4.34-.5 3.62-1.83 7.53-3.82 11.73-5.97.07-.04.22-.1.32-.12 1.65-.46 3.26-.03 4.74.75 3.34 1.75 6.64 3.44 10.47 5.36.22.11.4.25.39.5v1.66c0 .08 0 .18-.03.28l-.04.04c-.15.1-.7.16-1 .16H34.1c-.25 0-.35-.17-.5-.36a6.73 6.73 0 0 0-5.5-3c-.9-.03-1.83.01-2.73.22-2.33.55-4.6 2.13-5.28 4.4-.06.2-.1.46-.09.69v13.12c0 .68.04 1.17.1 1.47.17.8.55 1.47 1.12 2.03.3.28.74.57 1.34.87.51.26 1 .47 1.47.63 2.09.72 4.68.76 6.82.13 1.43-.43 2.48-1.2 2.96-2.65.05-.14.16-.13.32-.13l7.7-.03Z" fill="#E70012"/><path d="M35.71 27c.2 0 .3-.1.3-.3v-4.25c-.01-.48.03-.84.09-.99.2-.52.55-.82 1.12-1.07a4.3 4.3 0 0 1 3.51-.03c.77.31 1.27.85 1.27 1.62v10.98c0 .93-.57 1.44-1.52 1.78-1.1.4-2.22.34-3.34-.16-.56-.25-.93-.62-1.08-1.18a2.39 2.39 0 0 1-.06-.63v-3.44c0-.32-.18-.34-.47-.33H31.5c-.3 0-.5 0-.5.32v3.45c0 .3 0 .52-.03.63-.15.56-.52.93-1.09 1.18-1.12.5-2.26.55-3.36.16-.95-.34-1.52-.85-1.52-1.78V21.98c0-.77.5-1.3 1.27-1.62 1.2-.5 2.4-.48 3.54.03.56.25.92.55 1.12 1.07.06.15.08.47.07.95v4.32c0 .18.1.27.32.27h4.39Z" fill="#E70012"/></svg>