<!-- by TradingView --><svg xmlns="http://www.w3.org/2000/svg" width="56" height="56"><path fill="#0086DB" d="M0 0h56v56H0z"/><path d="M11 38l17.54-28L46 38H11zm23.97-9.68a7.8 7.8 0 00.56-2.68c0-1.16-.4-2.25-1.2-3.02a4.66 4.66 0 00-3.31-1.21h-.05c-2.93.03-5.91 1.64-8.22 3.71-2.3 2.1-3.98 4.68-4.01 7.08v.2c.05.8.37 1.74 1.1 2.5a4.75 4.75 0 003.33 1.43h.31c1.98 0 4.12-.84 6.09-2.15a4 4 0 005.4-5.86zm-1.24-.93c.2-.55.29-1.28.29-1.75a2.8 2.8 0 00-.77-1.99c-.48-.47-1.18-.77-2.23-.77h-.03c-2.34 0-5.09 1.4-7.2 3.32-2.12 1.9-3.55 4.33-3.52 6v.13c.01.47.23 1.1.69 1.6.46.48 1.15.89 2.27.93h.25c1.45 0 3.36-.74 5.07-1.83a4 4 0 015.18-5.64z" fill="#fff"/></svg>