<!-- by TradingView --><svg width="56" height="56" viewBox="0 0 56 56" xmlns="http://www.w3.org/2000/svg"><path d="M0 28a28 28 0 1 1 56 0 28 28 0 1 1-56 0Z" fill="#DB653D"/><path fill-rule="evenodd" d="M7.18 23H4l4 7.23V34h3v-3.77L15 23h-3.09L9.5 27.3 7.18 23Zm5.11 11 4.08-11h2.83l3.7 11h-2.87l-.53-1.45h-3.6L15.37 34h-3.07Zm4.6-4h1.66l-.82-2.21-.84 2.21ZM32 23h8v3h-5v1h4v3h-4v1h5v3h-8V23Zm-4.5 0a5.5 5.5 0 1 0 0 11H31v-7h-4v3h1v1h-.5a2.5 2.5 0 0 1 0-5H31v-3h-3.5ZM51 28.5a5.5 5.5 0 1 1-11 0 5.5 5.5 0 0 1 11 0Zm-3 0a2.5 2.5 0 1 1-5 0 2.5 2.5 0 0 1 5 0Z" fill="#fff"/></svg>