<!-- by TradingView --><svg width="56" height="56" fill="none" xmlns="http://www.w3.org/2000/svg"><path fill="#034A9C" d="M0 0h56v56H0z"/><path fill-rule="evenodd" clip-rule="evenodd" d="M10.367 23h-1.64L4 33h2l1.5-3h4.16L13 33h2l-4.633-10ZM11 28l-1.5-3L8 28h3ZM18.94 25.004S15 24.957 15 28.884C15 32.834 18.002 33 18.706 33c2.345 0 3.893-1.873 3.072-2.82-.101-.116-.191-.17-.278-.18-.495-.054-.869 1-2.466 1C17.392 31 17 29.262 17 28.363s.416-2.129 1.682-2.129c1.29 0 1.032 1.766 2.228 1.766 1.196 0 1.102-1.23.703-1.656-.375-.379-1.008-1.41-2.673-1.34ZM26.94 25.004S23 24.957 23 28.884C23 32.834 26.002 33 26.706 33c2.345 0 3.893-1.873 3.072-2.82-.101-.116-.191-.17-.278-.18-.495-.054-.869 1-2.466 1C25.392 31 25 29.262 25 28.363s.416-2.129 1.682-2.129c1.29 0 1.032 1.766 2.228 1.766 1.196 0 1.102-1.23.703-1.656-.375-.379-1.008-1.41-2.673-1.34ZM32 26v5s0 2 2.308 2c1.308 0 1.692-.275 1.692-.614 0-.202-.136-.368-.293-.386-.422-.047-1.707-.122-1.707-1.5V26h2v-1h-2v-1.762S33.978 23 33.778 23c-.178 0-1.512.879-1.512.879S32 23.95 32 24.33V25h-1v1h1ZM44 29.013c0-4.176-4.09-4.009-4.09-4.009S36 24.718 36 28.942s3.82 4.057 3.82 4.057 4.18.19 4.18-3.986Zm-2 .064C42 26.154 39.987 26 39.834 26c-.127 0-1.86.18-1.834 2.923C38 31.667 39.733 32 40.038 32 40.344 32 42 32 42 29.077ZM45 26.264V33h2v-6.003S47.22 26 48.42 26c1.201 0 1.58.997 1.58.997V33h2v-6.176S52.045 25 48.557 25C45.068 25 45 26.264 45 26.264Z" fill="#F0F3FA"/></svg>