<!-- by TradingView --><svg width="56" height="56" viewBox="0 0 56 56" xmlns="http://www.w3.org/2000/svg"><path d="M0 28a28 28 0 1 1 56 0 28 28 0 1 1-56 0Z" fill="#F0F3FA"/><path d="M38 27.12V29h-1v3h-4v5h4v2h-6v-5.2l-2.53 2.6h-.31L26 33.8V39h-3v-2h-1v-2h-1v4h-2v-8.58l-1-.77v-2.53l-3-3.53V19h-2v-5h2v2h1v1h1v-1h1v-2h2v5h-2v3.2l3 3.69V30h4.2l3.27 2.72L31.72 30H35v-4.11l3-3.68V19h-2v-5h2v2h1v1h1v-1h1v-2h2v5h-2v4.59l-3 3.53ZM21 33h2v-1h-2v1Zm4.53-11.47c-.84 0-1.53.68-1.53 1.51 0 .7.35 1.29 1 1.46V28h7v-3.5c.61-.19 1-.79 1-1.46 0-.83-.6-1.5-1.45-1.5-.84 0-1.55.67-1.55 1.5 0 .68.37 1.26 1 1.45V27h-5v-2.5c.66-.16 1-.75 1-1.46 0-.83-.63-1.5-1.47-1.5ZM13.43 32H18v-1h-5.1L10 34.11V39h1v-4.43L13.43 32Zm1.6 2H18v-1h-3.57L12 35.48V40h1v-3.94L15.03 34ZM18 36h-1.75L15 37.4V41h-1v-4.2l1.53-1.8H18v1Zm-1.27 1-.73.86V42h1v-3.38l.4-.62h.6v-1h-1.27Zm25.84-5H38v-1h5.1l2.9 3.11V39h-1v-4.43L42.57 32Zm-1.6 2H38v-1h3.57L44 35.48V40h-1v-3.94L40.97 34ZM38 36h1.75L41 37.4V41h1v-4.2L40.47 35H38v1Zm1.27 1 .73.86V42h-1v-3.38l-.4-.62H38v-1h1.27Z" fill="#005DB0"/></svg>