<!-- by TradingView --><svg width="56" height="56" fill="none" xmlns="http://www.w3.org/2000/svg"><path fill="#03509C" d="M0 0h56v56H0z"/><path d="M48 30.063c-2.573 0-4.89.927-6.69 2.358-.858.674-1.63 1.432-2.23 2.358C36.934 37.895 33.16 40 29.042 40c-4.203 0-7.892-2.021-10.036-5.221-.6-.926-1.373-1.684-2.23-2.358-1.888-1.431-4.204-2.358-6.777-2.358v-1c.515 0 1.03 0 1.544.084 2.83.337 5.318 1.6 7.12 3.537.514.506.943 1.01 1.372 1.6A10.846 10.846 0 0029.043 39c3.688 0 7.034-1.853 9.007-4.716.254-.437.603-.828.942-1.207.117-.132.234-.263.344-.393a11.95 11.95 0 017.12-3.537c.515-.084 1.03-.084 1.544-.084v1zm0-4.042V26.937c-.429 0-.858 0-1.287-.084-2.916-.253-5.49-1.6-7.377-3.537a12.372 12.372 0 01-1.372-1.6A10.962 10.962 0 0028.957 17a10.846 10.846 0 00-9.006 4.716c-.43.59-.858 1.095-1.373 1.6-1.887 1.937-4.46 3.2-7.377 3.537-.343.084-.772.084-1.2.084V26.02c2.572 0 4.889-.842 6.69-2.358.858-.674 1.63-1.516 2.316-2.442C21.15 18.105 24.926 16 29.043 16c4.203 0 7.892 2.021 10.036 5.221.6.926 1.373 1.684 2.23 2.442 1.802 1.432 4.118 2.274 6.691 2.358z" fill="#fff"/><path d="M27 23l2-2 2 2v10l-2 2-2-2V23z" stroke="#fff" stroke-width="2"/><path d="M34 26l2 2-2 2H24l-2-2 2-2h10z" stroke="#fff" stroke-width="2"/></svg>