<!-- by TradingView --><svg width="56" height="56" xmlns="http://www.w3.org/2000/svg"><path fill="#EC9430" d="M0 0h56v56H0z"/><path d="M45.905 33.067c-.302.514-1.037.933-1.633.933H4.666c-.596 0-.837-.42-.535-.933l5.965-10.134c.302-.513 1.036-.933 1.632-.933h39.608c.596 0 .837.42.535.933l-5.965 10.134z" fill="#fff"/><path d="M13.63 28.033v-2.026l-1.332.005L10 29.988h1.099l1.41-2.44v2.424l-.009.016h.01v.004h1.12l1.38-2.445v2.445H16v-3.985l-1.202.005-1.168 2.02zM26 29.993h1.022v-3.985H26v3.984zm-3.022-.817h-.608v-2.352h.608c.886 0 1.163.156 1.163 1.146 0 .99-.277 1.206-1.163 1.206zM23.217 26h-1.921v4h1.972c1.385 0 2.009-.535 2.009-2.032 0-1.415-.617-1.968-2.06-1.968zm8.472.837H33v3.155h1v-3.155h1.21l.479-.83h-3.52l-.48.83zm5.311.682c0-.504.185-.693.675-.693h1.454l.477-.826h-2.099c-.953 0-1.507.334-1.507 1.542V30h3.228l.477-.826H37V27.52zm-6.509-1.511h-.9l-2.3 3.984h1.133L30 27.155v2.837h1v-3.985h-.509zm12.36 1.996h-.003l.002-.009L44 26.007h-1.12l-1.15 1.988.006.01h-.006l1.15 1.987H44l-1.15-1.988zm-2.732 1.988h1.12v-3.985h-1.12v3.985zm-2.765-1.66h1.764l.382-.654h-1.789l-.357.653zM18.75 26.826c-.49 0-.75.19-.75.693v1.655h2.78l-.476.826H17v-2.458c0-1.208.63-1.542 1.583-1.542h2.099l-.478.826H18.75z" fill="#EC9430"/><path d="M20.194 28.331H18.43l.357-.653h1.789l-.382.653z" fill="#EC9430"/></svg>