<!-- by TradingView --><svg xmlns="http://www.w3.org/2000/svg" width="56" height="56"><path fill="#008738" d="M0 0h56v56H0z"/><path d="M43.77 28a15.77 15.77 0 11-31.54 0 15.77 15.77 0 0131.54 0z" fill="#fff"/><path d="M28 12a16 16 0 100 32 16 16 0 000-32zm.63.45c2.44.1 4.82.78 6.94 1.98a9.22 9.22 0 01-1.71 1.87 18.93 18.93 0 00-5.23-3.85zm-1.26 0a18.93 18.93 0 00-5.22 3.85 9.02 9.02 0 01-1.68-1.9 15.44 15.44 0 016.9-1.95zm.23.32a29.66 29.66 0 00-2.91 5.01 8.82 8.82 0 01-2.22-1.25 18.6 18.6 0 015.13-3.76zm.8 0a18.6 18.6 0 015.14 3.76 9 9 0 01-2.23 1.25 29.68 29.68 0 00-2.9-5.01zm-.6.4v4.01a.27.27 0 01.4-.02v-4a29.05 29.05 0 012.75 4.75c-.8.28-1.63.45-2.47.5l.07.38a9.96 9.96 0 002.56-.53 20.73 20.73 0 011.45 4.65l.35-.17h.01c-.32-1.7-.83-3.2-1.45-4.62a9.49 9.49 0 002.35-1.31 16.18 16.18 0 013.17 5.13c-1.2.42-2.44.75-3.7.98a.3.3 0 01-.01.18l-.12.25c1.34-.25 2.67-.6 3.96-1.04a16.9 16.9 0 011 5.5h-1.36a.27.27 0 01.07.3.27.27 0 01-.06.09h1.35l-.03.75.39.05.03-.8h5.08a15.46 15.46 0 01-2.02 7.37l-1.1-.6-.17.36c.37.18.73.38 1.09.58a15.57 15.57 0 01-5.43 5.45 9.39 9.39 0 00-.54-.72l-.35.19c.2.23.37.47.54.72a15.44 15.44 0 01-6.98 2c.87-.44 1.67-.92 2.41-1.44-.29.05-.58.08-.88.12a20 20 0 01-1.76 1c.22-.3.42-.6.62-.91l-.49.02-.33.5v-.5h-.39v.5l-.34-.5-.5-.03.63.92c-.6-.3-1.2-.65-1.78-1.01-.3-.04-.6-.08-.9-.14.76.53 1.57 1.02 2.45 1.46-2.44-.1-4.82-.77-6.94-1.97.18-.28.38-.54.58-.78l-.35-.2c-.2.26-.4.52-.58.8a15.57 15.57 0 01-5.46-5.48c.36-.2.73-.4 1.1-.58l-.15-.36c-.39.19-.77.39-1.14.6a15.38 15.38 0 01-1.93-7.38h5c0 .26 0 .52.02.78l.39-.04c-.02-.25-.03-.49-.03-.74h1.32a.27.27 0 010-.39h-1.32a16.9 16.9 0 011-5.52c1.3.45 2.62.8 3.98 1.05l-.11-.23a.27.27 0 01-.02-.2c-1.26-.23-2.5-.57-3.71-.98.72-1.9 1.8-3.63 3.17-5.12.7.56 1.5 1 2.34 1.33a21.34 21.34 0 00-1.45 4.6h.03l.33.17c.3-1.6.78-3.15 1.44-4.63.84.3 1.7.47 2.59.54l.07-.38a9.38 9.38 0 01-2.5-.5 28.87 28.87 0 012.77-4.76zm-7.68 1.43c.5.77 1.1 1.42 1.75 1.98a16.62 16.62 0 00-3.22 5.21 25.56 25.56 0 01-4-1.79 15.57 15.57 0 015.47-5.4zm15.8.02A15.57 15.57 0 0141.34 20a24.8 24.8 0 01-3.98 1.82 16.61 16.61 0 00-3.23-5.24 9.57 9.57 0 001.8-1.96zm-21.45 5.72c1.29.73 2.65 1.32 4.05 1.82-.66 1.81-1 3.72-1.03 5.64H12.5c.03-2.72.72-5.24 1.97-7.46zm27.06 0a15.46 15.46 0 012.06 7.46h-5.08a17.26 17.26 0 00-1.02-5.61c1.39-.5 2.75-1.1 4.04-1.85zM23.9 23.12l1.16.55c.5.06.98.11 1.48.14l.07-.39c-.91-.05-1.82-.16-2.71-.3zm8.18.01c-.9.14-1.79.24-2.69.29l.08.39c.48-.03.97-.07 1.45-.13l1.16-.55zm-9.15.37a28.42 28.42 0 00-.3 3.4l.4-.1c.03-.94.1-1.83.2-2.66l-.3-.64zm10.13.03l-.3.65c.1.82.16 1.7.2 2.62l.39.1c-.04-1.2-.13-2.32-.3-3.37zm-10.43 5.58c.04 1.21.14 2.34.3 3.39l.3-.65c-.1-.83-.17-1.7-.2-2.64l-.4-.1zm10.72 0l-.4.1c-.03.92-.1 1.79-.2 2.6l.3.65c.16-1.04.26-2.15.3-3.35zm-6.83 2.97c-.38.02-.76.06-1.13.1l-1.14.54c.78-.11 1.55-.2 2.34-.25l-.07-.39zm2.97 0l-.08.4c.78.04 1.54.12 2.3.22l-1.1-.53-1.12-.09zm3.6.45l.17.37.02.07c1.07.2 2.11.47 3.14.8l.16-.36a26.94 26.94 0 00-3.5-.88zm-10.18.01c-1.18.22-2.34.52-3.48.88l.18.36a27.6 27.6 0 013.1-.8l.03-.08.17-.36zm9.64.56c-.3 1.58-.77 3.11-1.42 4.58a9.9 9.9 0 00-2.58-.55l-.07.38c.75.05 1.49.2 2.21.43.29-.05.56-.1.82-.18a21.41 21.41 0 001.4-4.5l-.36-.16zm-9.12 0l-.33.17h-.03c.3 1.63.8 3.07 1.38 4.45.27.08.56.14.86.2a9.17 9.17 0 012.2-.42l-.06-.38c-.89.07-1.77.25-2.6.55a20.27 20.27 0 01-1.42-4.56z" fill="#FE3501"/><path d="M30.03 38.53l.84 3.37 1.06-.26-.3-1.18.59-.14c.15-.04.32.05.36.2l.22.9 1.07-.27-.33-1.29c-.05-.2-.17-.22-.26-.2.09-.03.18-.12.13-.32l-.26-1.07c-.1-.4-.3-.44-.58-.37l-2.54.63zm1.27.57l.71-.18c.1-.02.18.03.2.14l.07.27c.03.11-.01.17-.12.2l-.71.18-.15-.6zm4.6-3.77l1.58-2.57.73.45-1 1.63.4.25 1-1.63.65.4-1 1.63.44.27 1-1.63.73.45-1.57 2.56-2.96-1.81zm-2.67 2.1l2.41-1.8.52.69-1.54 1.14.28.38 1.54-1.15.46.62-1.54 1.15.3.41 1.54-1.15.52.69-2.42 1.8-2.07-2.78zM17.89 29.3l.38 2.99-.85.1-.24-1.9-.47.06.24 1.9-.76.1-.24-1.9-.52.07.25 1.9-.85.1-.38-2.98 3.44-.44zm19.71 3.15l.18-1.12 2-.7-1.83-.3.18-1.12 3.42.55-.18 1.12-2.03.7 1.87.31-.18 1.12-3.43-.56zm-10.82 9.48a.69.69 0 01-.2-.18c-.07-.1-.08-.15-.08-1.5 0-1.89-.12-1.75 1.5-1.75.97 0 1.12.01 1.23.07.2.11.27.29.27.7v.35h-1v-.1c0-.07-.08-.15-.15-.15h-.64c-.08 0-.16.08-.16.16v1.43c0 .08.08.18.16.18h.64c.07 0 .16-.1.16-.18v-.46H28V40h1.5v.78c0 .88-.01.96-.21 1.12-.1.08-.15.09-1.24.1-1.03 0-1.16 0-1.27-.07m-3.74-4.21l-.83 3.37 1.07.26.28-1.17.59.14c.15.04.26.2.22.35l-.22.9 1.06.25.32-1.29c.05-.2-.05-.28-.13-.3.08.01.21-.01.26-.22l.26-1.07c.1-.4-.06-.53-.34-.6l-2.54-.62zm.86 1.1l.71.17c.1.02.14.1.12.2l-.07.29c-.02.1-.09.14-.2.12l-.71-.18.15-.6zm-3.5-3.21l2.4 1.82-.52.68-1.53-1.15-.28.37L22 38.5l-.47.61L20 37.95l-.3.41 1.52 1.16-.51.68-2.4-1.82 2.08-2.77zm-1.95-3.05l.57 1.02-1.65 1.6 2.23-.57.58 1.03-3.6.69-.6-1.08 2.47-2.7zm14.34.22l-3.48-1.65-1.28 6.95-1.3-6.95-3.46 1.65 1.65-3.47-5.07-1.3 5.07-1.28-1.65-3.47 3.47 1.65 1.29-6.99 1.29 6.99 3.47-1.65-1.65 3.47 5.02 1.29-5.02 1.29 1.65 3.47" fill="#008738"/></svg>