<!-- by TradingView --><svg xmlns="http://www.w3.org/2000/svg" width="56" height="56"><path fill="#6FDBE7" d="M0 0h56v56H0z"/><circle cx="11.5" cy="17.5" r="1.5" fill="#013B84"/><path d="M11.1 18.38h1.55L21.72 44h-1.54L11.1 18.38z" fill="#013B84"/><path d="M18.35 34.58L23.38 44h-.58l-4.9-9.2.45-.22z" fill="#013B84"/><path d="M20.2 17.1c-4.88.12-7.11.76-7.62 1.06 8.55 8.02 7.25 14.34 5.96 16.84 4.48-1.3 9.14.9 9.92 1.3.78.4 4.83 1.17 7.09-.16 1.8-1.06 7.72-.77 10.45-.5-2.4-1.69-2.25-4.68-2.22-5.52.03-.83 0-4.41-2.01-6.17-1.64-1.43-1.79-5.82-1.6-7.9-6.28 4.2-12.73 2.11-15.1 1.57-1.9-.44-4.03-.53-4.86-.52z" fill="#fff"/><path d="M40.23 16c0 .73.09 2.7.3 4.2.1.76.27 1.5.5 2.11.24.63.54 1.13.9 1.45a6.45 6.45 0 011.85 3.57c.26 1.25.26 2.37.25 2.8v.03c-.03.89-.14 3.7 2.12 5.28L47 36l-1.02-.1a52.52 52.52 0 00-5.55-.26c-1.02.02-2 .07-2.84.19-.84.11-1.51.29-1.92.53-1.19.7-2.83.84-4.23.76-.71-.04-1.38-.14-1.91-.25-.53-.1-.96-.23-1.19-.35-.38-.2-1.72-.83-3.51-1.26-1.8-.44-4.04-.65-6.22-.02l-.55.16.26-.51a9.45 9.45 0 00.69-6.19c-.57-2.83-2.35-6.37-6.6-10.35l-.24-.23.28-.17c.3-.18 1.02-.42 2.26-.63a38.2 38.2 0 015.5-.47 23.73 23.73 0 015.54.68c2.75.68 7.7 2.08 14.48-1.53zm-14.6 2l-.62-.15a23.23 23.23 0 00-4.8-.5c-2.43.05-4.2.24-5.42.45-.86.15-1.43.3-1.76.43 4.1 3.93 5.89 7.47 6.47 10.36.52 2.62.07 4.69-.5 6.02a13.1 13.1 0 015.94.15c1.85.44 3.23 1.1 3.63 1.3.16.09.54.2 1.06.31.51.11 1.15.2 1.83.24 1.38.08 2.9-.07 3.96-.7.5-.28 1.25-.47 2.1-.59.87-.12 1.87-.17 2.9-.19 1.7-.02 3.46.08 4.8.19-1.82-1.78-1.72-4.36-1.7-5.17v-.05c.02-.4.02-1.48-.23-2.68a5.96 5.96 0 00-1.69-3.3c-.45-.4-.79-.98-1.03-1.64-.25-.67-.42-1.43-.53-2.21-.2-1.33-.21-2.72-.15-3.76-5.75 3.6-11.57 2.16-14.26 1.5z" fill="#013B84"/><path d="M27.05 32L21 22h4.05l2.1 2.98V22h3.05l1.73 2.98.25-2.98H36v10h-3.48l-1.68-1.93-.3 1.93h-3.5z" fill="#013B84"/></svg>