<!-- by TradingView --><svg width="56" height="56" xmlns="http://www.w3.org/2000/svg"><path fill="url(#paint0_linear)" d="M0 0h56v56H0z"/><path d="M36.197 27.905s0 .095.29.284C38.22 29.61 39 31.22 39 33.965 39 37.373 36.372 39 33 39v5c5.876 0 11-4.166 11-10.035 0-2.083-.578-4.166-2.023-6.154.096-.095.385-.474.578-.947.385-.568.482-1.42.482-3.882V12H28v9h-5v5h10v-8.982h5v7.479c-.096 0 .51 2.083-1.803 3.408z" fill="#009E9C"/><path d="M23 12h-1.703c-2.643.095-5.383.852-7.144 2.84C12.196 17.018 12 18.817 12 21.94V44h16v-9h5v-5H23v9h-6V21s-.38-3.905 4.611-4H23v-5z" fill="#008FC7"/><defs><linearGradient id="paint0_linear" x1="10.418" y1="9.712" x2="68.147" y2="76.017" gradientUnits="userSpaceOnUse"><stop stop-color="#1A1E21"/><stop offset="1" stop-color="#06060A"/></linearGradient></defs></svg>