<!-- by TradingView --><svg width="56" height="56" xmlns="http://www.w3.org/2000/svg"><path fill="url(#paint0_linear)" d="M0 0h56v56H0z"/><path d="M10 30.888c0-.68.056-1.225.15-1.662.153-.702.717-1.454 1.287-2.213.65-.867 1.306-1.742 1.363-2.56a4.509 4.509 0 012.848-3.871l.643-.255c.53-.21.975-.59 1.263-1.078l.356-.6a4.642 4.642 0 013.998-2.268h1.03c.897 0 1.777-.238 2.549-.69a5.047 5.047 0 014.969-.073l.182.1a5.41 5.41 0 002.597.663h1.193c1.278 0 2.467.642 3.159 1.704l.592.91a3.549 3.549 0 001.796 1.41l.428.15a4.558 4.558 0 013.06 4.29c0 .792.63 1.52 1.214 2.195.198.228.39.45.551.666.432.581.772 1.555.772 3.182v.168C46 33.786 43.761 36 41 36h-8c-1.61.274-1.712 2.55-.132 2.965l.113.03H33l5.164.86a1 1 0 01.836.987V41H17v-.158a1 1 0 01.836-.986L23 38.995h.023l.09-.02c1.645-.362 1.555-2.738-.113-2.975h-8c-2.761 0-5-2.214-5-4.944v-.168z" fill="#fff"/><defs><linearGradient id="paint0_linear" x1="3" y1="43.5" x2="49.5" y2="9.5" gradientUnits="userSpaceOnUse"><stop stop-color="#01994E"/><stop offset="1" stop-color="#6CBD45"/></linearGradient></defs></svg>