<!-- by TradingView --><svg xmlns="http://www.w3.org/2000/svg" width="56" height="56"><path fill="#0B8F7A" d="M0 0h56v56H0z"/><path fill-rule="evenodd" d="M38.78 39.83a16.2 16.2 0 004.15-17.7 16.37 16.37 0 00-5.6-7.17c-4.54-3.49-12-3.96-16.96-1.07a15.91 15.91 0 00-8.35 14.91 15.98 15.98 0 0026.76 11.03zM27.6 19.33l-.36.12c-.93-.27-1.89-.43-2.88-.54-.34.09-.56.41-.73.67l-.1.14c-.26.37-.46.79-.67 1.2-.25.52-.5 1.05-.89 1.51-.1.2-.3.25-.5.29-.17.03-.34.06-.46.18-1 0-1.8.68-2.31 1.4-.35.47-.89.7-1.42.94-.24.1-.49.22-.7.34l-.25.14c-.77.46-1.54.9-2.18 1.6l.04.04c-.19.28-.43.5-.66.71-.21.2-.43.4-.6.63.16-.05.24-.16.31-.26.1-.13.18-.25.42-.21.06.17-.04.27-.14.36-.06.06-.12.11-.13.18l.06-.03c.13-.07.26-.14.38-.1-.06.16-.18.25-.31.36l-.1.07c.12-.05.14.01.16.07 0 .02.02.05.04.06.07.02.16-.02.25-.07.13-.07.28-.14.42-.06a18.26 18.26 0 01-.56.54v.03c.13 0 .23 0 .3-.1.12-.02.23-.12.34-.22.1-.08.19-.17.28-.18l-.36.5.4-.3c.04.06 0 .11-.05.17-.05.06-.1.12-.02.2.16-.07.25-.19.34-.3.08-.1.16-.2.29-.27-.02.16-.14.3-.26.44-.08.09-.15.17-.2.26l.17-.12c.15-.09.33-.2.29-.39l.27-.24c.2-.17.39-.33.52-.56l.38-.43c.56-.65 1.08-1.25 1.98-1.44v.03l-.02.01h.01l.01-.01c.27-.23.62-.36.96-.49.41-.14.82-.3 1.12-.62.13-.17.76-.86.87-.46.23-.27.54-.36.85-.44.3-.08.59-.15.76-.4 0 .24 1.1-.86 1.2-1l.17-.28c.12-.22.24-.43.43-.56l.14-.27c.1-.2.2-.41.39-.57.3-.04.69-.07 1 .03.27.38.7.34 1.14.3.18-.02.36-.04.54-.03.01.15.1.15.18.15.08 0 .17 0 .18.15.29.14.47.44.65.75.13.22.27.45.45.63-.27.16-.6.43-.67.8-.43.07-.46.57-.46.57s.4-.17.53 0c-.27.27-.68.48-1.07.68l-.52.29.06.06-.18.17c-.06.07-.13.14-.18.17l.11.1.05.04.44.01.46.02c-.23.2-.53.44-.8.64h.27c-.05.15-.18.2-.31.25-.12.04-.24.09-.32.21.2 0 .07.24 0 .27.05 0 .09-.03.13-.06.09-.05.19-.1.3-.04-.04.1-.13.17-.21.24-.1.08-.2.15-.22.3.08-.05.15-.12.22-.2.12-.15.25-.3.45-.2 0 .04-.02.07-.06.1-.05.05-.1.1-.04.2l.13-.07c.07-.05.15-.1.26-.06.07 0 .14.06.1.13.07-.09.18-.09.28-.08.1 0 .19 0 .26-.05.3-.42.77-.52 1.25-.62.26-.06.53-.12.76-.22-.07-.41.29-.47.62-.52.14-.02.27-.05.37-.09.05-.2.22-.22.4-.25.16-.02.32-.04.4-.21.12-.11.23-.06.35 0 .07.03.14.06.21.06.13-.06.29-.09.44-.12.15-.02.3-.05.43-.12.52-.1.97.4 1.32.8l.2.21c.82 1 2.05 1.74 3.08 2.25-.26-.18-.51-.34-.77-.49a8.77 8.77 0 01-.95-.62c.03-.08.09-.07.15-.07h.05c.3.22.59.4.89.6.2.12.4.24.6.38 1.02.83 2.28 1.54 3.4 2l-.16-.13c.02-.01.01-.03 0-.05 0-.03 0-.06.03-.08l.23.13c.03-.1.13-.13.23-.15.02 0 .05 0 .07-.02-.11-.21-.37-.32-.6-.43l-.29-.14-.45-.26c-.76-.43-1.6-.9-2.23-1.51l.02-.03.5.31c.81.51 1.65 1.04 2.56 1.43.1.21.25.2.4.2.1 0 .2 0 .29.03l-.06-.02c-.07-.02-.14-.04-.14-.11h.53c-.06-.18-.22-.23-.39-.27-.15-.05-.3-.1-.4-.23.2-.07.46.03.66.13v-.03l-.1-.05c-.1-.03-.21-.07-.17-.22A17.42 17.42 0 0138 27.03c-.47-.27-.84-.7-1.21-1.14a3.9 3.9 0 00-1.6-1.31c-.12-.15-.19-.3-.26-.47-.05-.12-.1-.24-.18-.37l-.13.07c-.13-.16-.2-.34-.27-.52-.04-.12-.1-.24-.16-.35-.17-.24-.5-.3-.73-.3-.18.1-.42.06-.64.03-.21-.04-.4-.07-.51.03.23.12.17.33-.1.27a10.4 10.4 0 01-1.8-1.88l-.13-.16c.2-.54-.19-.82-.59-1.1a2.23 2.23 0 01-.6-.55c-.45-.34-1-.14-1.49.04z" fill="#fff"/></svg>