<!-- by TradingView --><svg xmlns="http://www.w3.org/2000/svg" width="56" height="56"><path fill="#F0F3FA" d="M0 0h56v56H0z"/><path d="M28.27 17c-6.25 0-10.64 2.42-12.05 3.56a5.66 5.66 0 012.4-5.51A17.62 17.62 0 0128.26 12c10.5 0 14.68 8.83 15.27 13.12C41.9 21.14 36.1 17 28.27 17z" fill="url(#ausyqwfbx)"/><path d="M27.85 39c6.25 0 10.64-2.42 12.05-3.56a5.66 5.66 0 01-2.4 5.51A17.62 17.62 0 0127.86 44c-10.5 0-14.62-8.76-15.37-13.14C14.14 34.84 20.03 39 27.85 39z" fill="url(#busyqwfbx)"/><path d="M16.18 20.68c-.48-2.18 1.36-4.5 2.29-5.42-5.4 4.1-6.59 10.22-6.46 12.81.04 8.14 10.9 11.2 15.97 10.9L28 28c-9.08-.39-11.23-4.6-11.82-7.32z" fill="url(#cusyqwfbx)"/><path d="M39.82 35.1c.48 2.15-1.26 4.53-2.18 5.45a16.05 16.05 0 006.35-12.74C43.95 19.78 33.08 16.64 28 16.94V28c9.08.38 11.23 4.41 11.82 7.1z" fill="url(#dusyqwfbx)"/><defs><linearGradient id="ausyqwfbx" x1="17.55" y1="18.22" x2="42" y2="18.22" gradientUnits="userSpaceOnUse"><stop stop-color="#A98233" stop-opacity="0"/><stop offset=".44" stop-color="#AA823A"/><stop offset="1" stop-color="#715639"/></linearGradient><linearGradient id="busyqwfbx" x1="38.57" y1="37.78" x2="14.12" y2="37.78" gradientUnits="userSpaceOnUse"><stop stop-color="#A98233" stop-opacity="0"/><stop offset=".44" stop-color="#AA823A"/><stop offset="1" stop-color="#715639"/></linearGradient><linearGradient id="cusyqwfbx" x1="13.51" y1="22.78" x2="28.1" y2="36.32" gradientUnits="userSpaceOnUse"><stop stop-color="#7A5E39"/><stop offset=".56" stop-color="#A57E3A"/><stop offset="1" stop-color="#7A5E39" stop-opacity="0"/></linearGradient><linearGradient id="dusyqwfbx" x1="42.49" y1="33.03" x2="26.93" y2="17.75" gradientUnits="userSpaceOnUse"><stop stop-color="#7A5E39"/><stop offset=".44" stop-color="#A77F3A"/><stop offset="1" stop-color="#7A5E39" stop-opacity="0"/></linearGradient></defs></svg>