<!-- by TradingView --><svg width="56" height="56" fill="none" xmlns="http://www.w3.org/2000/svg"><path fill="#008738" d="M0 0h56v56H0z"/><path fill-rule="evenodd" clip-rule="evenodd" d="M23 45h10v-1h6.734c1.005 0 1.837-.698 1.958-1.64l2.294-28.281c.139-1.071-.792-2.079-1.94-2.079H13.979c-1.146 0-2.046.933-1.975 1.998L14.55 42.31c.086.958.935 1.689 1.958 1.689H23v1Z" fill="#F0F3FA"/><path fill-rule="evenodd" clip-rule="evenodd" d="M18 16v7h9s3-4.5 9-7H18Z" fill="#FF6501"/><path fill-rule="evenodd" clip-rule="evenodd" d="M38 16v7s-4.358 2.542-5 6h-7c0-.016.917-8.101 12-13ZM24.659 36h7.702S32 38.672 32 44h-8s-.016-4.925.659-8Z" fill="#FE0002"/><path fill-rule="evenodd" clip-rule="evenodd" d="M16.5 30H18v1h-1.5v1H18v1h-1.5v1H18v1h-3v-5h1.5ZM24.5 30H26v1h-1.5v1H26v1h-1.5v1H26v1h-3v-5h1.5ZM34.5 30H36v1h-1.5v1H36v1h-1.5v1H36v1h-3v-5h1.5ZM20.5 30H19v5h3v-1h-1.5v-4ZM27.5 30H29l.5 3 .802-3H31.5l-1.046 5h-2.211l-.743-5ZM38.5 30H37v5h1.5v-3.498c.138-.11.346-.232.596-.232.455 0 .42.297.42.297L39.5 35H41v-4.326S40.865 30 39.87 30c-.527 0-1.022.256-1.37.497V30Z" fill="#008738"/></svg>