<!-- by TradingView --><svg xmlns="http://www.w3.org/2000/svg" width="56" height="56"><path fill="#F0F3FA" d="M0 0h56v56H0z"/><path d="M28.7 39.1c0-.01.01 0 0 0l-.07.08-.44-.36c-1.74-1.44-8.29-7.1-9.94-12-3.15-1.1-5.47-1.29-6.09-.27-1.12 1.83 3.69 6.84 10.73 11.2 7.04 4.36 13.65 6.41 14.77 4.58 1.1-1.79-3.65-6.66-10.46-10.96.12.26.24.53.38.78a14.6 14.6 0 003.33 4.16l-.1.1c.01.01 0 0 0 0s-4.07-3.4-5.71-6.37a50.22 50.22 0 00-4-2.04l.27.8c1.24 3.53 3.77 7.22 7.33 10.3z" fill="#557EC0"/><path d="M30.12 22.45c-2.3 2.74-.94 7.73 3.06 11.2l.11-.13c-2.92-2.6-3.49-6.78-1.25-9.44 2.24-2.65 6.44-2.76 9.46-.29l.12-.14c-4.07-3.4-9.19-3.94-11.5-1.2" fill="#D21F27"/><path d="M26.48 31.48a23 23 0 004.36 4.97l.1-.12a14.55 14.55 0 01-3.7-4.93c-1.5-3.4-1.36-7.04.75-9.54 3.2-3.8 9.75-3.54 14.68.58l.1-.13c-6.3-5.32-14.03-6.49-17.3-2.6-2.19 2.58-1.85 6.76.47 10.86l.54.9" fill="#D21F27"/><path d="M22.41 18.23c4.17-4.94 13.77-3.66 21.49 2.86l.1-.12c-9.4-7.96-20.42-10.36-24.65-5.35-2.26 2.68-2.12 6.95-.08 11.56a36.03 36.03 0 008.91 11.63l.45.4.1-.13s-.02 0 0 0c-3.57-3.07-6.1-6.76-7.35-10.3-.1-.26-.18-.52-.26-.78-1.13-3.76-.79-7.3 1.3-9.77z" fill="#D21F27"/></svg>