<!-- by TradingView --><svg width="56" height="56" fill="none" xmlns="http://www.w3.org/2000/svg"><path fill="#F0F3FA" d="M0 0h56v56H0z"/><path d="M10 25v3.496C10 30 8.727 31 7 31c-1.8 0-3-1-3-2.46V25h1.8v3.5c0 .628.497 1 1.227 1 .731 0 1.173-.376 1.173-1.004V25H10ZM11 27h1.638v.713c.414-.477 1.06-.713 1.776-.713 1.113 0 1.586.685 1.586 1.505V31h-1.586v-2.178c0-.358-.25-.674-.759-.674-.648 0-1.017.55-1.017.951V31H11v-4ZM47 27h1.638v.713c.414-.477 1.06-.713 1.776-.713 1.113 0 1.586.685 1.586 1.505V31h-1.587v-2.178c0-.358-.25-.674-.758-.674-.648 0-1.017.55-1.017.951V31H47v-4ZM17 26.994h1.636v3.988H17v-3.988ZM18.636 25H17v1.495h1.636V25ZM28 26.994h1.636v3.988H28v-3.988ZM29.636 25H28v1.495h1.636V25ZM20 27h1.615v.67c.416-.438.8-.67 1.434-.67.588 0 .805.164 1.124.63.468-.41.64-.63 1.301-.63.998 0 1.526.597 1.526 1.493v2.489L25.385 31v-2.507c0-.282-.197-.498-.539-.498-.517 0-.538.427-.538.828v2.159h-1.616v-2.316c0-.335-.12-.67-.538-.67-.513 0-.539.427-.539.827v2.159H20V27ZM34.334 29.392 36 29.55c-.29.91-1.197 1.451-2.368 1.451C32.074 31 31 30.33 31 29.04c0-1.209.971-2.04 2.5-2.04 1.176 0 2.042.424 2.412 1.333l-1.578.236c-.092-.329-.328-.569-.746-.569-.699 0-.921.54-.921 1 0 .628.307 1 .833 1 .448 0 .757-.266.834-.608ZM38.462 27v.72c.162-.395.396-.72.846-.72.23 0 .461.08.692.2l-.462 1.08a.973.973 0 0 0-.423-.12c-.672 0-.615 1.073-.615 1.52V31H37v-4h1.462ZM41 29c0-1.148 1.045-2 2.5-2 1.485 0 2.5.814 2.5 2 0 1.203-1.012 2-2.5 2-1.414 0-2.5-.854-2.5-2Zm1.875 0c0 .409-.028 1 .625 1 .665 0 .625-.582.625-1 0-.405.014-1-.625-1-.675 0-.625.567-.625 1Z" fill="#043B72"/></svg>