<!-- by TradingView --><svg width="56" height="56" viewBox="0 0 56 56" xmlns="http://www.w3.org/2000/svg"><path d="M0 28a28 28 0 1 1 56 0 28 28 0 1 1-56 0Z" fill="#F0F3FA"/><path d="M4 25h2.28l1.4 4.4h.03L8.9 25h2.33l1.28 4.4h.03l1.3-4.4H16l-2.46 7h-2.1l-1.45-4.65h-.03L8.68 32H6.53L4 25ZM17 23h2v2h-2v-2Z" fill="#016C92"/><path d="M17 25h2v7h-2v-7Z" fill="#A0CC56"/><path d="M23.8 27.13a1.4 1.4 0 0 0-1.16-.56c-.33 0-.73.15-.73.54 0 1 3.37.15 3.37 2.7 0 1.7-1.6 2.19-2.98 2.19-.9 0-1.9-.23-2.55-.9l1.22-1.4c.37.47.8.73 1.4.73.46 0 .91-.12.91-.47 0-1.08-3.37-.17-3.37-2.7 0-1.57 1.36-2.26 2.72-2.26.85 0 1.8.22 2.4.88l-1.23 1.25ZM31 26.59h-2v2.27c0 .76.16 1.3 1.1 1.3.22 0 .71-.02.9-.2v1.82a4.6 4.6 0 0 1-1.54.22c-1.43 0-2.46-.6-2.46-2.13v-3.28h-1.45V25H27v-2h2v2h2v1.59ZM32 25h2v1.27c.46-.83 1-1.27 1.95-1.27.24 0 .51.01.71.07V27c-.3-.09-.6-.14-.91-.14-1.63 0-1.75.93-1.75 2.29V32h-2v-7ZM36.76 28.51c0 2.14 1.65 3.52 3.72 3.52 2.06 0 3.71-1.38 3.71-3.52 0-2.13-1.65-3.51-3.71-3.51-2.07 0-3.72 1.38-3.72 3.51Zm2 0c0-1 .69-1.69 1.72-1.69s1.72.69 1.72 1.7c0 1-.7 1.69-1.72 1.69-1.03 0-1.72-.69-1.72-1.7ZM45 25h2v1.1a1.8 1.8 0 0 1 1.7-1.1c1.94 0 2.3 1.4 2.3 3.23V32h-2v-3.35c0-.78.06-1.8-.92-1.8-1 0-1.08.86-1.08 1.75V32h-2v-7Z" fill="#016C92"/></svg>