<!-- by TradingView --><svg width="56" height="56" fill="none" xmlns="http://www.w3.org/2000/svg"><path fill="#F0F3FA" d="M0 0h56v56H0z"/><path d="M4 28c0 3.134 2.463 6 5.69 6h4.45l.874-2h-4.582C8.23 31.945 6.977 29.957 7 27.986c-.022-1.969 1.22-3.934 3.419-3.986H18l1-2H9.69C6.462 22 4 24.866 4 28Zm8 1h4v4.99h3V27h-6l-1 2ZM23.999 22v6c-.027 2.38 1.576 4 3.998 4 2.404 0 4.03-1.65 4.004-4L32 22h3v6c0 3.184-2.412 6-6.973 6C23.465 34 21 31.184 21 28v-6h2.999ZM50 24h-7c-2.212.052-3.022 2.005-3 3.998-.023 1.993.788 3.95 3 4.002h8l-1 2h-7.613C39.3 33.793 37 31.029 37 28s2.3-5.793 5.387-6H51l-1 2Z" fill="#096"/></svg>