<!-- by TradingView --><svg width="56" height="56" viewBox="0 0 56 56" xmlns="http://www.w3.org/2000/svg"><path d="M0 28a28 28 0 1 1 56 0 28 28 0 1 1-56 0Z" fill="#611A86"/><path fill-rule="evenodd" d="m24.97 12-3.42 3.28c.03 1.86.28 4.57.9 7.26-1.98-.42-4.34-.7-7.16-.77L12 25.03c3.13-.33 7.4-.68 11.04-.36.37 1.17.83 2.3 1.39 3.3l-.04.11a18.5 18.5 0 0 0-1.38 3.35c-2.98.24-6.73.06-11.01-.32l3.3 3.41c1.82-.03 4.47-.27 7.11-.87-.6 2.63-.83 5.25-.86 7.07L24.97 44a68.04 68.04 0 0 1-.32-10.94c1.2-.38 2.33-.83 3.35-1.4a18.7 18.7 0 0 0 3.45 1.43c.3 3.6-.05 7.82-.38 10.91l3.28-3.28c-.07-2.77-.35-5.1-.76-7.06 2.65.6 5.29.83 7.12.86l3.29-3.4c-4.26.37-8 .55-10.97.31A17.8 17.8 0 0 0 31.62 28c.5-.9.97-2 1.38-3.33 3.62-.32 7.88.03 11 .36l-3.3-3.26c-2.8.07-5.17.35-7.15.77.43-2 .73-4.4.8-7.26L31.07 12c.34 3.14.7 7.44.36 11.07-1.37.4-2.5.88-3.43 1.39-.9-.5-2-.96-3.34-1.36-.26-3-.08-6.78.31-11.1Zm-.08 12.9c.1.6.23 1.14.39 1.64a7.78 7.78 0 0 1 1.33-1.23c-.53-.16-1.1-.3-1.72-.4Zm3.61 1.24a3.25 3.25 0 0 0-.49-.21 4.23 4.23 0 0 0-2.13 2.1A4.3 4.3 0 0 0 28 30.07a3.79 3.79 0 0 0 2.13-1.99 3.73 3.73 0 0 0-1.64-1.94Zm-1.87 4.66a7.9 7.9 0 0 1-1.37-1.3c-.15.53-.28 1.1-.39 1.7.64-.1 1.23-.24 1.76-.4Zm4.15-4.2-.43-.46c-.3-.34-.59-.63-.87-.86.54-.16 1.1-.28 1.71-.39-.1.6-.24 1.18-.41 1.71Zm-1.13 3.98c.43-.35.82-.73 1.14-1.14.17.55.31 1.15.42 1.78-.66-.11-1.27-.25-1.83-.42l.27-.22Z" fill="#fff"/></svg>