<!-- by TradingView --><svg width="56" height="56" viewBox="0 0 56 56" xmlns="http://www.w3.org/2000/svg"><path d="M0 28a28 28 0 1 1 56 0 28 28 0 1 1-56 0Z" fill="#F0F3FA"/><path d="M19 26h4.1c.85 0 2.31.11 2.3 1.22V30h-4.58c-.72 0-2.07-.25-2.08-1.27 0-1.02 1.52-1.19 2.53-1.19H24c0-.48-.09-.89-1.26-.9H19V26Zm2.05 2.2c-.5 0-.85.26-.85.58 0 .32.37.57.85.57H24v-1.14h-2.95ZM26 24h1.4v6H26v-6ZM43 26h1.4v4H43zM30.7 26c-1.55 0-2.7.9-2.7 2s1.01 2 2.44 2H34v-.62h-3.23a1.37 1.37 0 1 1 0-2.74H34V26h-3.3Z" fill="#006BAA"/><path fill-rule="evenodd" d="M47 26h-1.4v6H47v-2h2.54c1.44 0 2.46-.9 2.46-2s-1.16-2-2.73-2H47Zm0 .64v2.74h2.22a1.37 1.37 0 0 0 0-2.74H47Z" fill="#006BAA"/><path d="M36.4 24H35v6h1.4v-3.37h2.17c1.23.03 1.42.62 1.43.92V30h1.4v-2.35c0-1.45-1.31-1.65-2.47-1.65H36.4v-2Z" fill="#006BAA"/><path d="M21.91 18.28c-.02.1-.2.17-.39.14-.2-.03-.34-.15-.32-.27.02-.11.2-.17.4-.14.19.03.33.15.31.27Zm-1.45.6c.2.04.37-.02.4-.14.01-.1-.13-.23-.33-.26-.2-.04-.37.03-.39.14-.02.11.13.23.32.27Zm-.78.4c-.02.11-.2.18-.39.14-.2-.03-.34-.15-.32-.26.02-.12.2-.18.39-.15.2.03.34.15.32.27Zm-1.63.7c.2.04.39-.03.4-.15.03-.12-.12-.25-.33-.28-.2-.04-.4.03-.41.15-.02.12.13.24.34.28Zm-.9.45c-.01.11-.2.18-.4.15-.21-.04-.36-.16-.34-.28.02-.12.2-.2.4-.16.21.04.37.17.35.29Zm-1.8.77c.22.04.41-.03.43-.16.02-.12-.13-.25-.35-.3-.22-.03-.41.04-.43.17-.03.12.13.26.35.3Zm-1.06.5c-.02.14-.22.21-.45.17-.23-.04-.4-.18-.37-.3.02-.14.22-.22.45-.18.23.04.4.18.37.31Zm-2.06.9c.24.04.45-.04.47-.17.02-.14-.15-.28-.39-.32-.23-.04-.44.03-.46.17-.03.14.15.28.38.32Zm-1.25.6c-.02.15-.24.23-.5.19-.24-.05-.42-.2-.4-.34.03-.15.25-.23.5-.18.25.04.43.19.4.33Zm-2.35 1.02c.26.05.5-.04.52-.19.02-.15-.17-.3-.43-.35-.26-.05-.49.04-.51.19-.03.15.16.3.42.35Zm-1.45.72c-.03.16-.27.25-.55.2-.28-.04-.49-.21-.46-.38.02-.16.27-.25.55-.2.28.05.49.22.46.38Zm-2.16.97c-.03.16-.28.25-.56.2-.28-.04-.48-.21-.46-.37.03-.17.28-.26.56-.2.28.04.48.2.46.37Zm1.39 1.62c.32.05.6-.05.63-.24.03-.18-.2-.37-.52-.43-.32-.05-.6.05-.63.24-.03.18.2.37.52.43Zm2.57 1.13c-.04.2-.35.31-.7.25s-.6-.27-.57-.47c.03-.2.35-.32.7-.26s.6.27.57.48Zm1.15 1.63c.37.07.7-.07.74-.3.04-.23-.23-.47-.6-.53-.37-.07-.7.07-.74.3-.04.23.23.47.6.53Zm2.65-1.4c-.04.24-.37.37-.75.3-.37-.06-.64-.3-.6-.53.04-.23.37-.36.75-.3.37.07.64.3.6.54Zm1-.75c.34.06.65-.06.68-.28.04-.2-.21-.42-.55-.48-.34-.06-.65.06-.69.27-.03.21.22.43.56.5Zm-1.05 3.16c-.04.26-.39.4-.77.34-.38-.07-.66-.32-.61-.58.04-.25.38-.4.77-.33.38.06.65.32.61.57Zm1.06-.81c.38.06.73-.09.77-.34.04-.25-.23-.51-.61-.58-.39-.06-.73.09-.77.34-.05.25.23.51.61.58Zm2.33-1.38c-.04.24-.36.38-.72.32s-.62-.3-.58-.54c.04-.24.37-.38.72-.32.36.06.62.3.58.54Zm-2.4 3.84c.41.07.79-.1.83-.37.05-.28-.25-.56-.66-.63-.42-.07-.8.1-.84.37-.05.27.25.55.67.63Zm2.53-1.57c-.05.26-.41.42-.81.35-.4-.07-.7-.34-.65-.6.04-.27.4-.43.8-.36.41.07.7.34.66.6Zm.74-.75c.38.07.73-.08.77-.34.04-.25-.23-.5-.62-.57-.38-.07-.73.08-.77.34-.04.25.23.5.62.57Zm-.63 3.18c-.05.29-.45.46-.88.39-.44-.08-.76-.37-.71-.66.05-.3.44-.47.88-.4.44.08.76.38.7.67Zm.74-.84c.43.08.81-.1.86-.37.05-.28-.26-.57-.69-.65-.42-.07-.8.1-.86.38-.04.28.26.57.69.64Zm2.39-1.5c-.05.28-.44.45-.86.38-.43-.07-.73-.36-.69-.64.05-.28.43-.45.86-.38s.73.36.69.64Zm-2.35 3.98c.46.08.87-.11.92-.42.05-.32-.27-.64-.72-.71-.46-.08-.87.1-.92.42-.05.32.27.63.72.71Zm2.45-1.68c-.05.3-.44.48-.87.4-.43-.07-.74-.37-.68-.67.05-.3.44-.48.87-.4.43.07.73.37.68.67Zm.56-.75c.4.07.78-.1.83-.39.05-.28-.25-.57-.66-.64-.41-.07-.78.1-.83.39-.05.28.24.57.66.64Zm-.5 3.16c-.05.3-.42.48-.83.4-.4-.06-.7-.36-.65-.66.05-.3.43-.47.83-.4.41.07.7.36.65.66Zm.63-.86c.39.06.74-.11.79-.4.05-.27-.23-.56-.62-.62-.39-.07-.74.1-.79.38-.05.29.23.57.62.64Zm2.13-1.58c-.05.27-.38.43-.75.37s-.63-.33-.59-.6c.05-.27.38-.43.75-.37s.63.33.59.6Zm-1.95 3.98c.36.07.69-.11.74-.4.04-.28-.2-.56-.56-.62-.36-.06-.69.12-.73.4-.05.28.2.56.55.62Zm2.08-1.68c-.05.27-.36.45-.7.39-.34-.06-.58-.33-.53-.6.04-.27.35-.44.7-.38.33.06.57.33.53.6Zm.63-.86c.32.06.62-.1.67-.36.04-.26-.19-.52-.52-.58-.32-.05-.62.11-.67.37-.04.26.19.52.52.57Zm-.47 3.27c-.04.26-.34.42-.66.36-.33-.05-.55-.3-.51-.56.04-.26.34-.42.66-.37.33.06.56.31.51.57Zm.7-.99c.3.06.6-.1.63-.35.04-.24-.17-.48-.48-.54-.31-.05-.6.1-.64.35-.04.25.18.49.49.54Zm1.82-1.56c-.04.23-.31.38-.6.33-.3-.05-.52-.28-.48-.52.04-.23.32-.38.62-.33.3.05.5.28.46.52Zm-1.6 3.99c.28.05.55-.11.6-.35.03-.25-.17-.49-.45-.54-.3-.05-.56.11-.6.36-.04.24.16.48.45.53Zm1.79-1.68c-.04.22-.27.35-.52.31-.26-.04-.43-.25-.4-.47.04-.2.27-.35.53-.3.25.04.42.25.39.46Zm.65-.94c.25.04.49-.1.52-.31.04-.21-.14-.42-.4-.47-.24-.04-.48.1-.51.31-.04.22.14.42.39.47Zm-.36 3.37c-.03.21-.27.35-.53.31-.25-.04-.43-.26-.4-.47.04-.22.28-.36.54-.31.25.04.43.25.4.47Zm.64-1.08c.25.04.48-.1.51-.3.04-.21-.13-.41-.38-.46-.24-.04-.47.1-.5.3-.04.21.13.42.37.46Zm1.58-1.58c-.03.2-.24.31-.46.27-.22-.03-.38-.22-.34-.4.03-.2.23-.32.46-.28.22.04.37.22.34.41ZM26.67 42c.23.04.44-.1.48-.3.04-.22-.12-.42-.35-.46-.23-.04-.44.1-.48.3-.03.22.12.42.35.46Zm1.85.74c-.03.17-.2.29-.39.25-.18-.03-.3-.2-.28-.36.03-.17.2-.28.39-.25.18.03.3.2.28.36Zm.69-1.18c.18.03.35-.08.38-.25.03-.17-.1-.33-.28-.37-.18-.03-.35.09-.38.25-.03.17.1.34.28.37Zm-1-1.26c-.03.2-.23.32-.43.28-.2-.03-.35-.22-.31-.4.03-.2.22-.32.42-.28.2.03.35.21.32.4Zm.63-1.06c.2.04.4-.07.42-.24.03-.17-.12-.33-.32-.37-.2-.03-.4.08-.42.24-.03.17.11.34.32.37Zm1.4-1.47c-.02.17-.21.28-.42.25-.2-.04-.35-.2-.32-.37.03-.17.22-.28.43-.24.2.03.34.2.31.36Zm-.04 2.44c.18.03.34-.08.37-.25.03-.16-.1-.32-.27-.35-.18-.03-.35.08-.38.24-.02.17.1.33.28.36Zm1.25-1.46c-.03.15-.18.24-.34.22-.16-.03-.27-.17-.25-.32.03-.15.18-.25.34-.22.16.02.27.17.25.32Zm.55-.95c.16.02.3-.07.33-.21.02-.15-.09-.28-.24-.3-.15-.04-.3.06-.32.2-.02.14.08.28.23.3ZM10.92 27.6c-.03.2-.32.3-.65.25-.33-.06-.58-.26-.54-.45.03-.2.32-.3.65-.24.33.05.57.25.54.45Zm1.2-.75c.32.06.6-.05.64-.23.03-.18-.2-.37-.52-.43-.32-.05-.6.05-.63.23-.03.19.2.38.52.43Zm2.28-1.12c-.03.18-.31.28-.63.23-.31-.05-.54-.25-.51-.43.03-.18.3-.29.63-.23.31.05.54.25.51.43Zm.96-.66c.28.05.54-.04.57-.2.02-.17-.19-.35-.47-.4-.29-.04-.54.05-.57.21-.03.17.18.34.47.4Zm2.02-.98c-.02.16-.28.25-.57.2-.28-.04-.5-.22-.46-.38.02-.17.28-.26.57-.21.28.05.5.22.46.39Zm.84-.57c.27.05.5-.04.53-.19.03-.15-.17-.31-.43-.36-.27-.05-.5.04-.53.2-.03.15.17.3.43.35Zm1.83-.86c-.03.15-.26.24-.53.2-.26-.05-.46-.21-.43-.37.03-.15.26-.24.53-.2.26.06.46.22.43.37Zm.68-.47c.24.04.45-.04.47-.17.02-.14-.15-.28-.39-.32-.23-.04-.44.04-.46.17-.03.14.15.28.38.32Zm1.59-.78c-.02.13-.23.21-.47.17-.23-.04-.4-.18-.38-.32.02-.14.23-.21.47-.17.23.04.4.18.38.32Zm.62-.41c.22.04.42-.04.44-.16.02-.13-.14-.26-.36-.3-.22-.04-.42.03-.44.16-.02.13.14.26.36.3Zm1.43-.73c-.02.13-.22.2-.44.17-.22-.04-.38-.18-.36-.3.02-.13.22-.2.44-.16.22.03.38.17.36.3ZM8.46 26.53c.32.06.6-.05.63-.23.03-.18-.2-.37-.52-.43-.32-.05-.6.05-.63.23-.03.19.2.38.52.43Zm2.5-1.2c-.03.17-.29.26-.57.21-.29-.05-.5-.22-.47-.39.03-.16.28-.26.57-.2.29.04.5.21.47.38Zm1.17-.65c.29.05.54-.04.57-.2.03-.17-.18-.35-.47-.4-.28-.04-.54.05-.57.22-.02.16.19.34.47.38Zm2.24-1.02c-.03.16-.27.25-.54.2-.28-.04-.48-.21-.45-.37.02-.16.27-.25.54-.2.28.05.48.21.45.37Zm1-.57c.24.04.47-.04.5-.18.02-.15-.17-.3-.42-.34-.25-.05-.47.04-.5.18-.02.14.16.3.41.34Zm1.92-.86c-.03.14-.25.22-.5.18-.25-.04-.44-.2-.41-.34.02-.14.25-.23.5-.18.25.04.43.2.4.34Zm.86-.53c.23.04.43-.03.45-.16.02-.13-.14-.27-.37-.3-.23-.05-.43.03-.45.16-.02.13.14.26.37.3Zm1.71-.77c-.02.13-.22.2-.45.16-.22-.04-.39-.18-.37-.3.03-.14.23-.2.45-.17.23.04.4.18.37.3Zm.74-.45c.21.04.4-.03.42-.15.02-.12-.13-.24-.34-.28-.21-.04-.4.03-.42.15-.02.12.14.25.34.28Zm1.52-.65c-.02.12-.2.19-.4.15-.22-.04-.37-.16-.35-.28.02-.12.2-.19.41-.15.21.03.36.16.34.28Zm.65-.38c.21.03.4-.03.41-.15.02-.12-.13-.25-.34-.29-.2-.03-.39.04-.4.16-.03.12.12.24.33.28Z" fill="#005A90"/></svg>