<!-- by TradingView --><svg width="56" height="56" viewBox="0 0 56 56" xmlns="http://www.w3.org/2000/svg"><path fill="#F0F3FA" d="M0 0h56v56H0z"/><path d="M35.04 27.17a.08.08 0 0 0-.06-.08c-.03-.01-.06 0-.09.02l-5.46 5.76a.35.35 0 0 1-.26.13H25.3c-.07 0-.1-.05-.09-.12l2.3-11.05c.02-.12-.03-.19-.16-.19-5.1-.02-8.08 0-8.92.03-.49.02-1.54.3-1.68.87-.22.9.04 1.52.78 1.85l.96.4c1.4.59 2.4 1.09 2.99 1.49a4.76 4.76 0 0 1 1.95 2.44c.56 1.7.1 3.22-1.4 4.59-1.05.96-2.54 1.8-4.46 2.48A40.34 40.34 0 0 1 6.41 38c-.42.03-.85-.02-1.3-.13-.07-.02-.11-.07-.11-.14s.03-.12.1-.14c2.88-.8 5.09-1.52 6.63-2.15a18.81 18.81 0 0 0 5.69-3.44c1.27-1.2 1.54-2.39.81-3.6a5.44 5.44 0 0 0-3.22-2.22 9.42 9.42 0 0 1-2.57-1.08 2.36 2.36 0 0 1-1.02-2.3c.2-1.81 1.25-2.73 3.17-2.75 2.71-.04 8.6-.05 17.66-.03.15 0 .2.08.17.22l-1.34 5.31c-.02.07 0 .08.05.03l4.22-4.45c.11-.13.26-.12.44-.12h3.46c.16 0 .24 0 .24.17l.06 5.7c0 .04.02.07.05.08.04.01.07 0 .09-.03l4.25-5.79c.06-.09.15-.13.27-.13h4.66c.14 0 .17.06.09.17l-8.06 11.7c-.05.08-.12.13-.21.13h-5.5c-.1 0-.15-.07-.15-.16v-5.67Z" fill="#DC0021"/></svg>