<!-- by TradingView --><svg xmlns="http://www.w3.org/2000/svg" width="56" height="56"><path fill="#F0F3FA" d="M0 0h56v56H0z"/><path d="M10.33 27.2a1.13 1.13 0 000 1.6l6.2 6.2h13.81c1.6 0 2.66-1.21 2.66-2.73 0-.93-1.02-1.91-1.9-2.25-.26-.1-.54-.14-.8-.18l-.4-.07-4-.82c-3.16-.79-5.9-2.14-5.9-5.47 0-3.34 4.19-5.48 7.66-5.48h8.8l-7.66-7.67a1.13 1.13 0 00-1.6 0L10.33 27.2zM39.47 21H27.69C26.22 21 25 22.36 25 23.77c0 1.42 2.66 2.17 4.38 2.56l1.7.47c3.37.8 6.92 2.27 6.92 5.64 0 3.38-4.15 5.56-7.67 5.56h-10.8l7.67 7.67c.44.44 1.16.44 1.6 0L45.67 28.8c.44-.44.44-1.16 0-1.6l-6.2-6.2z" fill="#325A8E"/></svg>