<!-- by TradingView --><svg width="56" height="56" fill="none" xmlns="http://www.w3.org/2000/svg"><path fill="#F0F3FA" d="M0 0h56v56H0z"/><path fill-rule="evenodd" clip-rule="evenodd" d="M9 19.52V22h1.427c1.075 0 1.575 0 1.575-1.204.027-1.199-.779-1.297-1.658-1.276H9Zm-2-1.513h3.631c1.814-.082 3.418.5 3.369 2.745.066 2.184-1.583 2.796-3.369 2.748H9V27H7v-8.993ZM15 20h2v2c.36-.55 1.395-1.036 2.03-1 1.187 0 1.97.534 1.97 1.774V27h-2v-2.638c0-.447 0-1.362-.748-1.362C17 23 17 26.12 17 27h-2v-7ZM31 31h2v1c.36-.55 1.395-1.036 2.03-1 1.187 0 1.97.534 1.97 1.774V37h-2v-2.638c0-.448 0-1.362-.748-1.362C33 33 33 36.12 33 37h-2v-6ZM24.372 26.895c-.207.07-.514.103-.733.103-.943.045-1.686-.652-1.637-1.59-.096-1.936 3.016-1.656 3.016-2.612.035-.295-.266-.372-.608-.369-.62.006-1.083.276-1.625.573L23 21.413c.631-.198 1.235-.428 1.888-.41 1.586 0 2.11.612 2.11 2.049L27 26.998h-2v-1.383l.018-1.077-.819.256c-.282.052-.524.265-.516.563-.027.253.23.453.473.41.203.018.397-.103.603-.103l-.387 1.231ZM46.371 26.895c-.206.07-.513.103-.732.103-.943.045-1.686-.652-1.637-1.59-.096-1.936 3.016-1.656 3.016-2.612.035-.295-.266-.372-.608-.369-.62.006-1.083.276-1.625.573L45 21.413c.631-.198 1.235-.428 1.888-.41 1.586 0 2.11.612 2.11 2.049L49 26.998h-2v-1.383l.018-1.077-.819.256c-.282.052-.523.265-.516.563-.027.253.23.453.473.41.203.018.397-.103.603-.103l-.388 1.231ZM48.371 36.894a2.6 2.6 0 0 1-.732.102c-.943.045-1.686-.652-1.637-1.59-.096-1.935 3.016-1.656 3.016-2.612.035-.295-.266-.371-.608-.368-.62.006-1.083.276-1.625.572L47 31.411c.631-.197 1.235-.428 1.888-.41 1.586 0 2.11.613 2.11 2.05L51 36.995h-2v-1.383l.018-1.077-.819.256c-.282.052-.523.265-.516.564-.027.253.23.452.473.41.203.018.397-.103.603-.103l-.388 1.23ZM32 23c-1.147 0-1.954.57-2 1.772V27h-2v-6h2v1c.438-.754 1.192-.996 2-.996V23ZM5 37v-9h6v2H7v1.5h3v2H7V35h4v2H5ZM33 27v-6h2v1c.384-.576 1.612-1.027 2.312-.992.711-.02 1.445.231 1.688.98.395-.652 1-.98 1.994-.98 1.006 0 1.998.492 1.998 1.91v4.08H41C41 24 41 23 40.1 23 39 23 39 26.195 39 27h-2c0-3 0-4-1-4s-1 3.243-1 4h-2ZM12 35.083c.61.179 1.265.322 1.902.352.216.002.604-.053.598-.355 0-.458-2.469-1.141-2.5-2.468-.038-1.34 1.684-1.612 2.715-1.612.678-.018 1.455.078 2.12.202l.163 1.511c-.323-.11-2.228-.713-2.228.1 0 .436 2.226 1.02 2.228 2.319 0 1.3-1.596 1.877-2.66 1.863a7.914 7.914 0 0 1-2.171-.252L12 35.083ZM18 35.083c.61.179 1.265.322 1.902.352.216.002.604-.053.599-.355 0-.458-2.47-1.141-2.5-2.468-.038-1.34 1.683-1.612 2.714-1.612.679-.018 1.455.078 2.12.202l.163 1.511c-.323-.11-2.227-.713-2.227.1 0 .436 2.226 1.02 2.227 2.319.001 1.3-1.595 1.877-2.66 1.863a7.914 7.914 0 0 1-2.17-.252L18 35.083ZM26.362 33.34H27.9c0-.428-.109-1.054-.666-1.016-.541-.005-.804.547-.87 1.016Zm2.818 3.455a9.023 9.023 0 0 1-2.05.203c-1.658 0-3.201-.945-3.125-2.743-.1-1.899 1.435-3.329 3.33-3.252 1.506 0 2.664.67 2.664 2.287.013.375.001.743.001 1.118h-3.638c0 .825.614 1.14 1.436 1.067a5.633 5.633 0 0 0 1.588-.203l-.206 1.523ZM41 34.255c0 .453 0 1.245.535 1.174.159-.002.307-.05.465-.05l-.14 1.517c-.369.097-.922.097-1.3.097-1.06 0-1.56-.493-1.56-1.76V33h-1v-2h1v-1.56l2-.44v2h1v2h-1v1.255ZM43 30.5V29h2v1.5h-2Zm2 .5v6h-2v-6h2Z" fill="#139349"/></svg>