<!-- by TradingView --><svg width="56" height="56" viewBox="0 0 56 56" xmlns="http://www.w3.org/2000/svg"><path fill="#F0F3FA" d="M0 0h56v56H0z"/><path d="M28 11c9.37 0 17 7.63 17 17 0 9.37-7.63 17-17 17-9.37 0-17-7.63-17-17 0-9.37 7.63-17 17-17Zm0 1c-8.82 0-16 7.18-16 16s7.18 16 16 16 16-7.18 16-16-7.18-16-16-16Z" fill="#359539"/><path d="M39.8 29.72c-.23.2-.49.36-.78.47-.28.1-.58.17-.9.17a2.4 2.4 0 0 1-1.7-.7A2.24 2.24 0 0 1 35.7 28c0-.65.24-1.2.71-1.66a2.51 2.51 0 0 1 3.38-.06l.06.05 1.15-1.2-.05-.05A4.08 4.08 0 0 0 38.13 24c-1.13 0-2.12.4-2.92 1.17A3.8 3.8 0 0 0 34 28c0 1.1.4 2.05 1.21 2.83a4.22 4.22 0 0 0 5.74.09l.05-.05-1.15-1.2-.06.05ZM23.55 24H21.8l-1.4 4.95-1.39-4.93V24h-1.75v.02L15 32h1.75l1.38-4.88L19.52 32h1.77l1.48-5.23L24.25 32H26l-2.26-8h-.19ZM30 29.78 27.74 24H26l3.13 8h1.74L34 24h-1.74L30 29.78Z" fill="#359539"/></svg>