<!-- by TradingView --><svg width="56" height="56" fill="none" xmlns="http://www.w3.org/2000/svg"><path fill="#F0F3FA" d="M0 0h56v56H0z"/><path fill-rule="evenodd" clip-rule="evenodd" d="M14 19h2.997c1.433 0 2.762 1.165 2.97 2.563L22 35h-3.596c-1.095 0-2.137-.88-2.293-1.993L14 19ZM22 19h2.727c1.305 0 2.514 1.135 2.704 2.497L28 27l-4 7c-1.5-10.508-1.351-10.39-2-15Z" fill="#006C93"/><path fill-rule="evenodd" clip-rule="evenodd" d="m13 23 .307 2S12 27.794 12 30.767C12 33.74 13.838 38 20.75 38c2.15 0 3.25-.256 3.25-.256l-1.92 3.225S9 41.97 9 32.587C9.026 27.101 13 23 13 23ZM19 18l1 .752S26.648 14 34.45 14 44 18.342 44 20.9c0 2.558-2.354 7.113-8 11.1l-3 5c1.642-.702 12.922-7.248 13-15.047C46.101 13.276 36.836 13 34.706 13c-2.13 0-8.495.235-15.707 5Z" fill="#006C93"/><path fill-rule="evenodd" clip-rule="evenodd" d="M21 45h6.105L44.12 16.3s-1.674-1.984-4.47-2.636L21 45Z" fill="#8ED203"/></svg>