<!-- by TradingView --><svg width="56" height="56" fill="none" xmlns="http://www.w3.org/2000/svg"><path fill="#E50081" d="M0 0h56v56H0z"/><path fill-rule="evenodd" clip-rule="evenodd" d="M12 27h3v-8h3v8h3v-8h3v8h3v-9.19c0-.994-.742-1.81-1.645-1.81h-11.71c-.903 0-1.645.816-1.645 1.81V27ZM12 40h3v-8h3v8h3v-8h3v8h3v-9.19c0-.994-.742-1.81-1.645-1.81h-11.71c-.903 0-1.645.816-1.645 1.81V40ZM42.39 16H30.61c-.905 0-1.61.783-1.61 1.709v7.582c0 .926.705 1.709 1.61 1.709h11.78c.872 0 1.61-.748 1.61-1.709V17.71c0-.926-.705-1.709-1.61-1.709Zm-2.157 3h-7.466c-.434 0-.767.346-.767.723v3.554c0 .409.367.723.767.723h7.466c.434 0 .767-.346.767-.723v-3.554c0-.409-.367-.723-.767-.723ZM42.39 29H30.61c-.905 0-1.61.783-1.61 1.709v7.582c0 .926.705 1.709 1.61 1.709h11.78c.872 0 1.61-.748 1.61-1.709V30.71c0-.926-.705-1.709-1.61-1.709ZM41 35c0-3.3-4.688-4-4.781-4-.782.092-4.219 1.589-4.219 3.819S34.281 38 34.281 38a16.06 16.06 0 0 0-.046-.1c-.114-.248-.235-.51-.235-.698C34 36.377 35 36 35 36c.188 1.833 1.875 1.996 2.281 1.996.024 0 .057 0 .099.002.68.021 3.62.11 3.62-2.998Z" fill="#F0F3FA"/></svg>