<!-- by TradingView --><svg width="56" height="56" fill="none" xmlns="http://www.w3.org/2000/svg"><path fill="#F0F3FA" d="M0 0h56v56H0z"/><path fill-rule="evenodd" clip-rule="evenodd" d="M9.33 22.113c-.388.678.17.352-.898.553.44.268.674.346.826.753l-.947.377c-.704-1.431.267-1.406-1.311-1.808.024.075.073.1.097.251l.389 1.03c.412 2.058-1.069 1.33 2.719.602.946-.176 2.136-.301 3.204-.402.152.196.37.43.591.531.355-.648.992-1.559 1-2.312.002-.222-.177-.342-.644-.654l-.146.402c-.15.547-.213 1.127-.34 1.682l-1.213.075c.17-.778.242-.653.728-1.03l-.583-.15c.437-.829-.291-.276.704-.728l-.655-.326.801-.83c-.728-.074-.388.026-.631-.326L12.584 19c-.656 1.18.752 1.155-.971 1.406l.85.502c-.389.628.194.302-.753.452l.728.553c-.14.144-.506.502-.704.502l.607.753-1.092.226c-.17-1.306.364-3.517-.249-4.394-.213.441-.24 4.442-.286 4.447-.06.007-.238-.035-.728.098-.024-.05-.097-.226-.097-.176l.413-.804h-.534l-.122-.577.729-.427-.632-.402.632-.627c-1.87-.026.17-.076-1.384-.93-.34 1.005.85.653-.656 1.457 1.433.226.631-.176.85.527l-.68.226.826.301Z" fill="#0937A8"/><path fill-rule="evenodd" clip-rule="evenodd" d="m12.116 26.845-.465 1.22-.837.106-.395-1.273 1.697-.053Zm-1.93-.822c.256-.265.28-.371.907-.477 1.326-.239.86.026 1.093.212-.325.557-.093.45-1.093.636-1.046.186-.581.239-.907-.37Zm2.442.53c.093-.875.232-.45.395-1.14 0-.026-.023-.08 0-.159 0-.08-.023-.106-.023-.159-1.023-.345-2.07.371-3.535.212.628 2.201.28 2.095 1 2.917L8 28.674c.907.743 2.326 0 3.628-.132 1.023-.106 2.605.265 3.372-.132-.302-.451.372-.133-.488-.504-.093-.053-.512-.106-.628-.106-.512-.027-1.07.106-1.582.159.605-.955.303-.424.35-1.22-.024-.053-.047-.133-.024-.186Z" fill="#1A44AD"/><path fill-rule="evenodd" clip-rule="evenodd" d="M33 25.235c.456-.192.267-.024.723-.144l.815-.337c-.695-.408-.172-.264-1.538-.048 0-1.418.603-1.466-.907-1.706.263 1.25.503 2.932.047 4.278l-.887-.072c-.215-1.706.648-2.091-.839-2.452l.216 2.644-1.63.096c.288.745.671.48 1.534.36 2.038-.288 5.035-.12 5.466-.456-.503-.625-.48-.254-1.366-.398H33v-1.765Z" fill="#0937A8"/><path fill-rule="evenodd" clip-rule="evenodd" d="M28 25c1.122-.36 1.671-1.078 2.316-1.797l1.79-2.489C34.255 23.01 34 24 37 24c-.113-.13-.183-.272-.334-.36-.55-.414-2.96-.99-4.082-3.12-.669-1.299.859-.276-.74-1.52-.478.636-.215 1.687-1.552 3.346C29.504 23.369 28.668 23.977 28 25ZM9 25l4-.49c-.644-.767-.966-.49-1.852-.307-.296.061-.86.153-1.128.245L9 25ZM20.985 20.616l-1.7.224C20 21 20 21 20.857 21c.025 1.294-.076.91-1.422 1.134l1.168.522c-.761 1.518-1.142.15-2.36.995.71.373 1.116.15 1.852.075-.507 1.095-2.106 2.736-3.096 3.259.94-.125 1.574-.771 2.208-1.244.762.622 0 .473 1.244.746l-.686-.995c-.025-.025-.101-.05-.152-.1.38-.571.965-1.417 1.32-1.915l1.396-.174c.508.746.99 1.418 1.65 2.065.33.323.736.48 1.269.58.181.032.351.049.512.052.47.009.861-.103 1.239-.326-.838-.547-3.096-.53-4.442-2.52l1.625-.05c.431-.1.304-.1.507-.224-.888-.721-2.385.05-3.705.174.203-.945 0-.746.863-.97.685-.174.431.1 1.269-.224l.355-.199c-.736-.323-1.218-.025-2.03.174-.051-1.492.253-.77 1.7-1.194 1.117-.323.533-.199.889-.572l-2.133.348c-.38-.472.407-.696-.76-1.343-.28.597-.077.672-.153 1.542Z" fill="#0937A8"/><path fill-rule="evenodd" clip-rule="evenodd" d="M21.13 29c.926-.788 1.249-4.32.289-5-.39.5-.385-.02-.419.66 0 0 .028.617.028.671.343 2.664-.754 2.61-.754 2.61-.034-.055-.137.054-.274.135l1.13.924Z" fill="#0937A8"/><path fill-rule="evenodd" clip-rule="evenodd" d="M23 27c.494.57 1.086.752 2 1-.37-1.114-.642-.95-2-1Z" fill="#002AA2"/><path fill-rule="evenodd" clip-rule="evenodd" d="M22 26c.805-.27 1.257-.308.845-1-.53.192-.629.558-.845 1ZM18 27.633c.16.108.27.361.548.367.265.005.685-.215 1.452-1-.257.053-1.143.158-1.314.211-.657.211-.372.132-.686.422ZM42.717 22.293l1.443-.148c-.22.867-.073.891-.953 1.164-.38-.385-.691-.516-.49-1.016Zm-.269 1.288-.88.074c.336.34.984.361 1.432.446-.611.768-.6.28-1.408.899H43c-.636.867-.796.53-2.802 1 .954.495 1.304.248 2.233 0-.929 1.313-.915 1.059-2.431 2 1.516-.1 2.364-.977 3-1.62v1.857c0 .763.133.669.475.743l.123-2.75c.515.563 1.649 1.802 3.055 1.77.33-.007.513-.093.847-.286-1.54-.768-2.693-.74-3.5-1.978 1.076-.075 1.364.123 2-.347-.481-.253-3.654-.069-1.88-.694.635-.198.244.1.88-.297-1.125-.619-.986.62-1.378-.57L45 23.557c-.245-.57.26 0-.742-.643.905-.496.155-.071.742-.913 1.712 0 2.235.145 3-.45-1.125-.396-2.446 0-3.84.198.392-3.095.783-2.178-.146-2.748-.025.05-.074.124-.074.173-.465 1.684.392 2.18-.66 2.625-.71-1.337.611-1.288-.734-2.154-.562.767-.098-.12.098 2.356-.93.05-2.984.12-3.644.541 1.174.545 1.639.124 2.886-.1l.611.893-.049.247Z" fill="#0937A8"/><path fill-rule="evenodd" clip-rule="evenodd" d="M45 21c.19-.097.395-.174.6-.31.658-.483.277-.038.395-.599-.468-.31-.761.213-.995.909ZM41.788 21.625c-.098-.966-.049-.892-.93-1.016.294.842.074.768.93 1.016Z" fill="#0937A8"/><path d="m7.947 32.213-.71 1.574h.79c.394 0 .677-.212.868-.56H9l-.605 1.333h-.106c.17-.343.003-.56-.368-.56h-.79l-.605 1.28c-.22.448-.089.613.369.613L6.842 36H5l.053-.107c.459 0 .7-.142.894-.586l1.185-2.587c.22-.448.089-.613-.369-.613L6.816 32H10l-.368.88h-.106c.077-.546-.16-.667-.658-.667h-.92ZM9.79 34.167c-.236.516-.284 1.333.488 1.333.493 0 .86-.313 1.168-.667l.082.056c-.34.58-1.017 1.111-1.712 1.111-.437 0-.802-.279-.816-.727-.006-.205.056-.44.192-.717.37-.803 1.123-1.556 2.064-1.556.49 0 .75.302.744.684-.003.153-.067.318-.147.483-.027.027-2.064 0-2.064 0ZM9.87 34h1.386c.082-.194.109-.306.109-.389a.398.398 0 0 0-.408-.389c-.472 0-.874.387-1.086.778ZM14.1 33.6c.536-.4 1.055-.6 1.393-.6.691 0 .497.659.31 1.086l-.564 1.257c-.153.312-.172.543.226.543l-.057.114h-1.52l.056-.114c.398 0 .589-.152.732-.515l.535-1.228c.11-.25.308-.743-.14-.743-.254 0-.66.143-1.055.4l-.704 1.543c-.153.362-.16.543.294.543l-.057.114H12l.056-.114c.398 0 .52-.217.705-.543l.478-1.086c.207-.419.514-.901-.112-.743V33.4l1.03-.343h.14l-.196.543ZM24.558 33h-.116c.112-.387.252-.76-.207-.76H23.7l-1.233 3.067c-.093.24-.14.4-.116.453.046.08.14.133.279.133h.14l-.047.107H21l.047-.107h.139a.598.598 0 0 0 .419-.16c.07-.053.14-.213.232-.426l1.175-3.067h-.407c-.493 0-.874.326-1.09.76h-.117l.486-1H25l-.442 1ZM17.489 34.766c-.285-.188-.277-.518-.165-.805.243-.538.81-.961 1.413-.961.236 0 .424.052.566.182h.683s.023 0 .023.026c0 .054-.044.234-.117.234h-.472c.047.13.024.311-.07.519-.219.542-.82.883-1.39.883a1.88 1.88 0 0 1-.377-.052c-.118.078-.189.13-.26.182-.292.323.2.338.448.338.458 0 1.265-.027 1.06.649-.308.68-1.184 1.039-1.884 1.039-.232 0-1.114-.142-.92-.571.142-.312.582-.54.849-.728-.141-.104-.189-.208-.141-.311.023-.078.094-.156.188-.234.142-.104.306-.208.566-.39Zm1.177-1.61c-.385 0-.649.383-.777.701-.098.26-.283.883.189.883.466 0 .946-.774.931-1.24-.006-.2-.127-.344-.343-.344Zm-1.602 2.571c-.163.12-.408.314-.47.52-.167.367.615.415.8.415.405 0 1.062-.122 1.225-.571.143-.313-.427-.286-.589-.286-.424-.026-.754-.026-.966-.078ZM25.62 35.523c-.407.225-.65.365-.759.393-.135.056-.27.084-.406.084-.453 0-.51-.366-.379-.729.294-.762 1.553-1.017 2.22-1.206l.054-.112c.154-.318.236-.757-.243-.757-.256 0-.508.07-.623.309-.067.139-.135.28-.244.392a.427.427 0 0 1-.243.084c-.163 0-.244-.14-.136-.308.081-.168.244-.28.515-.449.27-.14.568-.224.893-.224.315 0 .731.065.731.449 0 .084-.054.28-.19.532l-.433.954a6.5 6.5 0 0 1-.216.504c-.061.127.104.2.19.112.053-.028.189-.112.351-.224l-.081.168c-.379.309-.677.477-.92.477-.109 0-.19-.028-.217-.112.027-.056.054-.168.135-.337Zm.08-.224.488-1.093c-.414.122-1.385.33-1.49.869-.091.238-.063.504.244.504.136.029.407-.056.759-.28Z" fill="#0937A8"/><path d="M27.623 33H29l-.055.105c-.337 0-.436.156-.436.5l.083 1.369 1.412-1.474c.203-.193.341-.395 0-.395l.055-.105H31l-.055.105c-.276 0-.5.227-.665.421l-2.546 2.684a2.87 2.87 0 0 1-.747.58c-.25.131-.47.21-.664.21-.217 0-.364-.119-.305-.342.06-.17.305-.263.47-.263.137 0 .293.046.416.105.266 0 .49-.255.664-.421l.443-.474-.11-2.026c0-.246-.116-.379-.333-.447l.055-.132ZM36.616 33.24h-.085c.021-.303 0-.531-.086-.683-.128-.228-.341-.355-.661-.355-.874 0-1.6.86-1.984 1.773-.15.354-.213.683-.192.987.021.304.085.506.256.658.15.127.341.203.555.203.128 0 .256-.026.384-.05.128-.026.277-.077.405-.153l.427-.962c.16-.383.123-.557-.235-.557l.043-.101h1.344l-.043.101h-.064c-.293 0-.432.266-.555.557l-.448 1.013c-.234.127-.47.202-.682.253-.214.05-.427.076-.662.076-.661 0-1.088-.228-1.259-.709-.128-.354-.085-.76.086-1.215.455-1.17 1.59-2.076 2.645-2.076.31 0 .582.253.875.253.118 0 .167-.144.213-.253H37l-.384 1.24ZM38.817 33.657c.382-.428.693-.657.932-.657.213 0 .29.193.215.371-.04.144-.208.286-.358.286-.072 0-.12-.028-.192-.114-.047-.086-.095-.114-.143-.114-.22 0-.456.344-.574.485l-.526 1.4c-.115.276-.17.572.215.572L38.34 36H37l.048-.114c.402 0 .436-.207.577-.543l.43-1.114c.088-.253.457-.973-.12-.743l.025-.115 1-.371h.12l-.263.657ZM42.474 33c2.191 0 .319 2.379-.594 2.806a2.299 2.299 0 0 1-.922.194c-.995 0-1.121-.826-.802-1.472.363-.764 1.304-1.528 2.318-1.528Zm-.208.194c-.658 0-1.088.566-1.308 1.028-.196.394-.585 1.5.297 1.5.238 0 .476-.083.684-.25.502-.351 1.622-2.278.327-2.278ZM47.561 33l-.75 1.772c-.164.38-.523.949.12.742v.115L45.775 36h-.148l.296-.629c-.413.257-.891.63-1.391.63-.306 0-.533-.167-.533-.515.03-.143.089-.343.237-.629l.651-1.318c.157-.379.028-.428-.326-.428l.06-.115h1.154l-.977 1.975c-.144.349-.199.658.237.658.356 0 .699-.235 1.006-.4l.69-1.657c.184-.355-.02-.461-.325-.461l.059-.115 1.095.004ZM48.545 33.314 49.56 33h.117l-.258.627c.301-.302.568-.627 1.021-.627.727 0 .6.85.422 1.307-.278.696-.957 1.49-1.78 1.49-.225 0-.308-.046-.435-.235l-.327.81c-.119.309-.188.523.234.523l-.047.105H47l.047-.105c.408 0 .497-.17.655-.522l1.053-2.536c.112-.292.195-.543-.21-.393v-.13Zm.78.444-.42.994c-.14.31-.361.836.178.836.55 0 .93-.64 1.123-1.072.164-.418.21-.732.14-.94-.046-.158-.163-.236-.327-.236-.297 0-.462.263-.693.418Z" fill="#0937A8"/></svg>